#!OML:ASF C:\ViconDB\ViconDB\414\Spring2016\041811\Spring2016.ASF
:FULLY-SPECIFIED
:DEGREES
431
root 12.7166 12.4771 -14.2118 101.582 -53.2358 291.319
lowerback 38.8301 -1.43521 -6.9186
upperback 9.24717 -6.38408 -7.34527
thorax -8.82627 -3.19124 -1.64383
lowerneck -21.7854 -2.83967 -10.976
upperneck 14.7362 -7.74723 30.8056
head 10.4539 -1.8339 12.3506
rclavicle -1.04958e-013 -2.29795e-013
rhumerus -13.4011 -30.5653 -34.2335
rradius 23.9424
rwrist 39.1785
rhand -34.631 -24.1957
rfingers 7.12502
rthumb -7.78868 -54.0323
lclavicle -1.04958e-013 -2.29795e-013
lhumerus -2.18616 17.3169 45.9808
lradius 21.6902
lwrist 20.8038
lhand -31.718 44.384
lfingers 7.12502
lthumb -4.97641 74.3056
rfemur 194.043 212.392 -128.278
rtibia -95.0279
rfoot 84.8901 -114.858
rtoes 42.7165
lfemur -121.289 7.7946 -20.896
ltibia 69.048
lfoot -6.54451 17.5167
ltoes 9.54657
432
root 12.7812 12.5045 -14.2012 104.097 -54.3709 288.452
lowerback 38.6257 -1.3671 -6.9693
upperback 9.31212 -6.35408 -7.45611
thorax -8.69593 -3.201 -1.75427
lowerneck -21.7043 -2.87526 -11.1278
upperneck 14.4844 -7.77793 31.0459
head 10.3858 -1.87356 12.4615
rclavicle 2.54444e-014 1.06946e-013
rhumerus -14.7654 -31.3558 -32.9217
rradius 24.0616
rwrist 39.2128
rhand -34.6737 -24.3904
rfingers 7.12502
rthumb -7.8298 -54.2254
lclavicle 2.54444e-014 1.06946e-013
lhumerus -3.25458 15.6256 45.1719
lradius 22.6949
lwrist 19.6883
lhand -30.7567 42.5414
lfingers 7.12502
lthumb -4.04823 72.4826
rfemur 195.603 212.743 -128.139
rtibia -95.6865
rfoot 89.0784 -115.609
rtoes 44.3576
lfemur -120.734 8.72389 -20.526
ltibia 68.3114
lfoot -5.61423 17.5571
ltoes 9.19328
433
root 12.8398 12.5159 -14.1866 106.369 -55.6234 285.655
lowerback 38.7283 -1.33193 -7.06247
upperback 9.31434 -6.41046 -7.53047
thorax -8.7296 -3.23929 -1.75838
lowerneck -21.5475 -2.90342 -11.3205
upperneck 14.4379 -7.77006 31.0516
head 10.3415 -1.89889 12.4961
rclavicle 5.725e-014 4.25399e-014
rhumerus -16.3151 -31.5757 -31.1072
rradius 24.0762
rwrist 39.1301
rhand -34.5324 -24.7646
rfingers 7.12502
rthumb -7.69345 -54.6047
lclavicle 5.725e-014 4.25399e-014
lhumerus -3.94817 15.1819 45.1114
lradius 23.7706
lwrist 18.1145
lhand -31.0365 41.3786
lfingers 7.12502
lthumb -4.3184 71.3145
rfemur 196.825 213.304 -128.311
rtibia -95.7737
rfoot 92.6996 -116.385
rtoes 46.0075
lfemur -119.886 9.36862 -20.2983
ltibia 67.5443
lfoot -4.58031 17.8713
ltoes 9.06085
434
root 12.9065 12.5484 -14.1817 109.29 -56.6076 282.421
lowerback 38.3536 -1.09526 -7.37444
upperback 9.23109 -6.22004 -7.42751
thorax -8.64593 -3.16732 -1.57492
lowerneck -21.2431 -2.95602 -11.641
upperneck 14.5029 -7.75675 30.9579
head 10.2983 -1.93462 12.5199
rclavicle 1.84472e-013 1.51076e-013
rhumerus -18.1852 -31.3639 -28.8523
rradius 24.11
rwrist 38.7076
rhand -34.3807 -24.6208
rfingers 7.12502
rthumb -7.54701 -54.4662
lclavicle 1.84472e-013 1.51076e-013
lhumerus -4.3684 13.5262 45.1873
lradius 25.025
lwrist 18.6216
lhand -31.9073 41.8947
lfingers 7.12502
lthumb -5.15925 71.8119
rfemur 196.845 213.215 -128.12
rtibia -94.8557
rfoot 95.0052 -116.8
rtoes 47.7354
lfemur -119.211 10.3726 -19.9056
ltibia 66.6155
lfoot -3.38794 18.0133
ltoes 9.27429
435
root 12.9836 12.5903 -14.1667 111.82 -57.7013 279.642
lowerback 38.1251 -1.10832 -7.37924
upperback 9.17553 -6.24061 -7.43762
thorax -8.63246 -3.18664 -1.57815
lowerneck -20.8653 -2.99637 -12.0416
upperneck 14.5413 -7.73152 30.9937
head 10.2423 -1.97117 12.6202
rclavicle 4.13472e-014 -4.85035e-014
rhumerus -20.2264 -31.6891 -26.28
rradius 23.6623
rwrist 39.7332
rhand -34.3032 -24.606
rfingers 7.12502
rthumb -7.4722 -54.454
lclavicle 4.13472e-014 -4.85035e-014
lhumerus -4.1895 12.0658 45.2918
lradius 26.1731
lwrist 20.1872
lhand -32.8971 43.3914
lfingers 7.12502
lthumb -6.11483 73.2832
rfemur 195.739 213.287 -128.308
rtibia -93.3055
rfoot 90.1533 -116.985
rtoes 47.7354
lfemur -118.325 10.9207 -19.6073
ltibia 65.4941
lfoot -2.01739 18.2778
ltoes 9.6567
436
root 13.0792 12.6646 -14.1387 114.465 -58.7804 276.787
lowerback 37.7768 -1.22832 -7.25848
upperback 9.24639 -6.34816 -7.58862
thorax -8.47054 -3.25709 -1.76848
lowerneck -20.7293 -3.0245 -12.223
upperneck 14.6055 -7.72806 30.9101
head 10.2328 -1.99236 12.6226
rclavicle 4.13472e-014 3.65764e-014
rhumerus -22.2961 -31.8938 -23.6823
rradius 23.2484
rwrist 41.3367
rhand -34.1308 -24.6153
rfingers 7.12502
rthumb -7.30582 -54.4692
lclavicle 4.13472e-014 3.65764e-014
lhumerus -3.25757 11.808 45.2727
lradius 26.8086
lwrist 21.7078
lhand -33.894 45.0403
lfingers 7.12502
lthumb -7.07724 74.902
rfemur 194.068 213.069 -129.305
rtibia -91.5774
rfoot 80.2248 -115.829
rtoes 47.7354
lfemur -117.173 11.3972 -19.324
ltibia 64.1394
lfoot -0.791795 18.5227
ltoes 9.28615
437
root 13.1787 12.7516 -14.1131 117.347 -59.7071 273.653
lowerback 37.395 -1.37021 -7.28717
upperback 9.33413 -6.5277 -7.71477
thorax -8.25729 -3.36177 -1.83297
lowerneck -20.8005 -3.01756 -12.4483
upperneck 14.8855 -7.68851 30.7728
head 10.3267 -1.97877 12.645
rclavicle -8.5875e-014 -1.13705e-013
rhumerus -24.2306 -33.0076 -20.8692
rradius 22.7698
rwrist 45.0993
rhand -33.0721 -24.1639
rfingers 7.12502
rthumb -6.28386 -54.0506
lclavicle -8.5875e-014 -1.13705e-013
lhumerus -1.85912 13.037 45.2159
lradius 26.8603
lwrist 22.5022
lhand -34.4184 46.3164
lfingers 7.12502
lthumb -7.58342 76.1604
rfemur 192.679 212.524 -130.254
rtibia -90.1975
rfoot 67.3011 -113.539
rtoes 47.7354
lfemur -115.929 12.019 -18.6275
ltibia 62.864
lfoot 0.864893 18.6546
ltoes 9.63227
438
root 13.2738 12.8263 -14.0814 120.193 -60.7569 270.38
lowerback 37.3071 -1.51853 -7.47207
upperback 9.41263 -6.80163 -7.7919
thorax -8.13065 -3.50464 -1.72189
lowerneck -20.7202 -3.03411 -13.0074
upperneck 14.951 -7.57081 30.832
head 10.3226 -1.95722 12.8195
rclavicle -3.18055e-015 3.89618e-014
rhumerus -25.876 -33.5805 -18.0657
rradius 22.1025
rwrist 47.1787
rhand -33.5229 -23.1071
rfingers 7.12502
rthumb -6.71905 -52.9805
lclavicle -3.18055e-015 3.89618e-014
lhumerus -0.159646 14.8536 45.2626
lradius 26.4033
lwrist 22.1794
lhand -34.8293 45.912
lfingers 7.12502
lthumb -7.98006 75.7414
rfemur 192.609 211.889 -132.03
rtibia -89.5111
rfoot 61.5605 -112.859
rtoes 47.7354
lfemur -114.636 12.5 -18.1407
ltibia 61.7779
lfoot 2.60559 18.3567
ltoes 9.60395
